<?xml version="1.0" encoding="utf-8" standalone="no"?>
<!DOCTYPE svg PUBLIC "-//W3C//DTD SVG 1.1//EN"
  "http://www.w3.org/Graphics/SVG/1.1/DTD/svg11.dtd">
<svg height="292.4pt" version="1.1" viewBox="0 0 364.4 292.4" width="364.4pt" xmlns="http://www.w3.org/2000/svg" xmlns:xlink="http://www.w3.org/1999/xlink">
 <metadata>
  <rdf:RDF xmlns:cc="http://creativecommons.org/ns#" xmlns:dc="http://purl.org/dc/elements/1.1/" xmlns:rdf="http://www.w3.org/1999/02/22-rdf-syntax-ns#">
   <cc:Work>
    <dc:type rdf:resource="http://purl.org/dc/dcmitype/StillImage"/>
    <dc:date>2021-04-22T01:03:34.208706</dc:date>
    <dc:format>image/svg+xml</dc:format>
    <dc:creator>
     <cc:Agent>
      <dc:title>Matplotlib v3.4.1, https://matplotlib.org/</dc:title>
     </cc:Agent>
    </dc:creator>
   </cc:Work>
  </rdf:RDF>
 </metadata>
 <defs>
  <style type="text/css">*{stroke-linecap:butt;stroke-linejoin:round;}</style>
 </defs>
 <g id="figure_1">
  <g id="patch_1">
   <path d="M 0 292.4 
L 364.4 292.4 
L 364.4 0 
L 0 0 
z
" style="fill:none;"/>
  </g>
  <g id="axes_1">
   <g id="patch_2">
    <path d="M 41.966875 256.492188 
L 357.2 256.492188 
L 357.2 10.999219 
L 41.966875 10.999219 
z
" style="fill:#ffffff;"/>
   </g>
   <g id="matplotlib.axis_1">
    <g id="xtick_1">
     <g id="line2d_1">
      <defs>
       <path d="M 0 0 
L 0 -3.5 
" id="ma4f73591bb" style="stroke:#000000;stroke-width:0.8;"/>
      </defs>
      <g>
       <use style="stroke:#000000;stroke-width:0.8;" x="41.966875" xlink:href="#ma4f73591bb" y="256.492188"/>
      </g>
     </g>
     <g id="text_1">
      <!-- $\mathdefault{10^{0}}$ -->
      <g transform="translate(34.366875 267.590625)scale(0.1 -0.1)">
       <defs>
        <path d="M 2975 0 
L 706 0 
L 706 475 
L 1550 475 
L 1550 3594 
L 706 3594 
L 706 4019 
Q 1184 4019 1411 4155 
Q 1638 4291 1666 4669 
L 2150 4669 
L 2150 475 
L 2975 475 
L 2975 0 
z
" id="Tahoma-31" transform="scale(0.015625)"/>
        <path d="M 3234 2328 
Q 3234 1075 2870 489 
Q 2506 -97 1747 -97 
Q 978 -97 618 500 
Q 259 1097 259 2322 
Q 259 3581 623 4164 
Q 988 4747 1747 4747 
Q 2516 4747 2875 4144 
Q 3234 3541 3234 2328 
z
M 2434 909 
Q 2525 1141 2562 1494 
Q 2600 1847 2600 2328 
Q 2600 2806 2562 3159 
Q 2525 3513 2431 3747 
Q 2338 3984 2173 4107 
Q 2009 4231 1747 4231 
Q 1488 4231 1320 4107 
Q 1153 3984 1056 3741 
Q 963 3503 928 3140 
Q 894 2778 894 2322 
Q 894 1834 923 1506 
Q 953 1178 1053 919 
Q 1144 678 1311 548 
Q 1478 419 1747 419 
Q 2006 419 2173 542 
Q 2341 666 2434 909 
z
" id="Tahoma-30" transform="scale(0.015625)"/>
       </defs>
       <use transform="translate(0 0.896875)" xlink:href="#Tahoma-31"/>
       <use transform="translate(54.589844 0.896875)" xlink:href="#Tahoma-30"/>
       <use transform="translate(110.134258 39.079688)scale(0.7)" xlink:href="#Tahoma-30"/>
      </g>
     </g>
    </g>
    <g id="xtick_2">
     <g id="line2d_2">
      <g>
       <use style="stroke:#000000;stroke-width:0.8;" x="132.626102" xlink:href="#ma4f73591bb" y="256.492188"/>
      </g>
     </g>
     <g id="text_2">
      <!-- $\mathdefault{10^{1}}$ -->
      <g transform="translate(125.026102 267.590625)scale(0.1 -0.1)">
       <use transform="translate(0 0.75)" xlink:href="#Tahoma-31"/>
       <use transform="translate(54.589844 0.75)" xlink:href="#Tahoma-30"/>
       <use transform="translate(110.134258 38.932812)scale(0.7)" xlink:href="#Tahoma-31"/>
      </g>
     </g>
    </g>
    <g id="xtick_3">
     <g id="line2d_3">
      <g>
       <use style="stroke:#000000;stroke-width:0.8;" x="223.285329" xlink:href="#ma4f73591bb" y="256.492188"/>
      </g>
     </g>
     <g id="text_3">
      <!-- $\mathdefault{10^{2}}$ -->
      <g transform="translate(215.685329 267.590625)scale(0.1 -0.1)">
       <defs>
        <path d="M 3213 0 
L 341 0 
L 341 653 
Q 650 947 925 1215 
Q 1200 1484 1463 1775 
Q 1994 2359 2187 2711 
Q 2381 3063 2381 3438 
Q 2381 3631 2320 3778 
Q 2259 3925 2153 4022 
Q 2044 4116 1900 4162 
Q 1756 4209 1584 4209 
Q 1419 4209 1248 4167 
Q 1078 4125 922 4063 
Q 791 4009 669 3934 
Q 547 3859 472 3806 
L 438 3806 
L 438 4469 
Q 631 4566 976 4658 
Q 1322 4750 1631 4750 
Q 2281 4750 2650 4404 
Q 3019 4059 3019 3469 
Q 3019 3197 2955 2965 
Q 2891 2734 2778 2538 
Q 2663 2334 2500 2134 
Q 2338 1934 2156 1741 
Q 1863 1422 1502 1078 
Q 1141 734 925 534 
L 3213 534 
L 3213 0 
z
" id="Tahoma-32" transform="scale(0.015625)"/>
       </defs>
       <use transform="translate(0 0.864063)" xlink:href="#Tahoma-31"/>
       <use transform="translate(54.589844 0.864063)" xlink:href="#Tahoma-30"/>
       <use transform="translate(110.134258 39.046875)scale(0.7)" xlink:href="#Tahoma-32"/>
      </g>
     </g>
    </g>
    <g id="xtick_4">
     <g id="line2d_4">
      <g>
       <use style="stroke:#000000;stroke-width:0.8;" x="313.944556" xlink:href="#ma4f73591bb" y="256.492188"/>
      </g>
     </g>
     <g id="text_4">
      <!-- $\mathdefault{10^{3}}$ -->
      <g transform="translate(306.344556 267.590625)scale(0.1 -0.1)">
       <defs>
        <path d="M 1597 4209 
Q 1428 4209 1259 4168 
Q 1091 4128 928 4063 
Q 778 4000 667 3931 
Q 556 3863 469 3803 
L 431 3803 
L 431 4463 
Q 634 4572 982 4661 
Q 1331 4750 1647 4750 
Q 1963 4750 2198 4686 
Q 2434 4622 2625 4488 
Q 2831 4338 2936 4125 
Q 3041 3913 3041 3628 
Q 3041 3244 2787 2953 
Q 2534 2663 2181 2584 
L 2181 2541 
Q 2328 2513 2495 2444 
Q 2663 2375 2806 2241 
Q 2950 2106 3040 1895 
Q 3131 1684 3131 1381 
Q 3131 1066 3023 802 
Q 2916 538 2719 334 
Q 2516 122 2228 12 
Q 1941 -97 1575 -97 
Q 1225 -97 881 -12 
Q 538 72 303 191 
L 303 850 
L 347 850 
Q 544 706 875 575 
Q 1206 444 1538 444 
Q 1728 444 1920 505 
Q 2113 566 2241 703 
Q 2366 841 2431 1006 
Q 2497 1172 2497 1425 
Q 2497 1678 2423 1840 
Q 2350 2003 2219 2097 
Q 2088 2191 1908 2227 
Q 1728 2263 1519 2263 
L 1253 2263 
L 1253 2781 
L 1459 2781 
Q 1881 2781 2145 2981 
Q 2409 3181 2409 3563 
Q 2409 3738 2340 3864 
Q 2272 3991 2166 4066 
Q 2047 4147 1903 4178 
Q 1759 4209 1597 4209 
z
" id="Tahoma-33" transform="scale(0.015625)"/>
       </defs>
       <use transform="translate(0 0.864063)" xlink:href="#Tahoma-31"/>
       <use transform="translate(54.589844 0.864063)" xlink:href="#Tahoma-30"/>
       <use transform="translate(110.134258 39.046875)scale(0.7)" xlink:href="#Tahoma-33"/>
      </g>
     </g>
    </g>
    <g id="xtick_5">
     <g id="line2d_5">
      <defs>
       <path d="M 0 0 
L 0 -2 
" id="m942d05a073" style="stroke:#000000;stroke-width:0.6;"/>
      </defs>
      <g>
       <use style="stroke:#000000;stroke-width:0.6;" x="69.258022" xlink:href="#m942d05a073" y="256.492188"/>
      </g>
     </g>
    </g>
    <g id="xtick_6">
     <g id="line2d_6">
      <g>
       <use style="stroke:#000000;stroke-width:0.6;" x="85.222319" xlink:href="#m942d05a073" y="256.492188"/>
      </g>
     </g>
    </g>
    <g id="xtick_7">
     <g id="line2d_7">
      <g>
       <use style="stroke:#000000;stroke-width:0.6;" x="96.549168" xlink:href="#m942d05a073" y="256.492188"/>
      </g>
     </g>
    </g>
    <g id="xtick_8">
     <g id="line2d_8">
      <g>
       <use style="stroke:#000000;stroke-width:0.6;" x="105.334955" xlink:href="#m942d05a073" y="256.492188"/>
      </g>
     </g>
    </g>
    <g id="xtick_9">
     <g id="line2d_9">
      <g>
       <use style="stroke:#000000;stroke-width:0.6;" x="112.513466" xlink:href="#m942d05a073" y="256.492188"/>
      </g>
     </g>
    </g>
    <g id="xtick_10">
     <g id="line2d_10">
      <g>
       <use style="stroke:#000000;stroke-width:0.6;" x="118.58281" xlink:href="#m942d05a073" y="256.492188"/>
      </g>
     </g>
    </g>
    <g id="xtick_11">
     <g id="line2d_11">
      <g>
       <use style="stroke:#000000;stroke-width:0.6;" x="123.840315" xlink:href="#m942d05a073" y="256.492188"/>
      </g>
     </g>
    </g>
    <g id="xtick_12">
     <g id="line2d_12">
      <g>
       <use style="stroke:#000000;stroke-width:0.6;" x="128.477763" xlink:href="#m942d05a073" y="256.492188"/>
      </g>
     </g>
    </g>
    <g id="xtick_13">
     <g id="line2d_13">
      <g>
       <use style="stroke:#000000;stroke-width:0.6;" x="159.917249" xlink:href="#m942d05a073" y="256.492188"/>
      </g>
     </g>
    </g>
    <g id="xtick_14">
     <g id="line2d_14">
      <g>
       <use style="stroke:#000000;stroke-width:0.6;" x="175.881546" xlink:href="#m942d05a073" y="256.492188"/>
      </g>
     </g>
    </g>
    <g id="xtick_15">
     <g id="line2d_15">
      <g>
       <use style="stroke:#000000;stroke-width:0.6;" x="187.208395" xlink:href="#m942d05a073" y="256.492188"/>
      </g>
     </g>
    </g>
    <g id="xtick_16">
     <g id="line2d_16">
      <g>
       <use style="stroke:#000000;stroke-width:0.6;" x="195.994182" xlink:href="#m942d05a073" y="256.492188"/>
      </g>
     </g>
    </g>
    <g id="xtick_17">
     <g id="line2d_17">
      <g>
       <use style="stroke:#000000;stroke-width:0.6;" x="203.172693" xlink:href="#m942d05a073" y="256.492188"/>
      </g>
     </g>
    </g>
    <g id="xtick_18">
     <g id="line2d_18">
      <g>
       <use style="stroke:#000000;stroke-width:0.6;" x="209.242037" xlink:href="#m942d05a073" y="256.492188"/>
      </g>
     </g>
    </g>
    <g id="xtick_19">
     <g id="line2d_19">
      <g>
       <use style="stroke:#000000;stroke-width:0.6;" x="214.499542" xlink:href="#m942d05a073" y="256.492188"/>
      </g>
     </g>
    </g>
    <g id="xtick_20">
     <g id="line2d_20">
      <g>
       <use style="stroke:#000000;stroke-width:0.6;" x="219.13699" xlink:href="#m942d05a073" y="256.492188"/>
      </g>
     </g>
    </g>
    <g id="xtick_21">
     <g id="line2d_21">
      <g>
       <use style="stroke:#000000;stroke-width:0.6;" x="250.576476" xlink:href="#m942d05a073" y="256.492188"/>
      </g>
     </g>
    </g>
    <g id="xtick_22">
     <g id="line2d_22">
      <g>
       <use style="stroke:#000000;stroke-width:0.6;" x="266.540773" xlink:href="#m942d05a073" y="256.492188"/>
      </g>
     </g>
    </g>
    <g id="xtick_23">
     <g id="line2d_23">
      <g>
       <use style="stroke:#000000;stroke-width:0.6;" x="277.867622" xlink:href="#m942d05a073" y="256.492188"/>
      </g>
     </g>
    </g>
    <g id="xtick_24">
     <g id="line2d_24">
      <g>
       <use style="stroke:#000000;stroke-width:0.6;" x="286.653409" xlink:href="#m942d05a073" y="256.492188"/>
      </g>
     </g>
    </g>
    <g id="xtick_25">
     <g id="line2d_25">
      <g>
       <use style="stroke:#000000;stroke-width:0.6;" x="293.83192" xlink:href="#m942d05a073" y="256.492188"/>
      </g>
     </g>
    </g>
    <g id="xtick_26">
     <g id="line2d_26">
      <g>
       <use style="stroke:#000000;stroke-width:0.6;" x="299.901264" xlink:href="#m942d05a073" y="256.492188"/>
      </g>
     </g>
    </g>
    <g id="xtick_27">
     <g id="line2d_27">
      <g>
       <use style="stroke:#000000;stroke-width:0.6;" x="305.158769" xlink:href="#m942d05a073" y="256.492188"/>
      </g>
     </g>
    </g>
    <g id="xtick_28">
     <g id="line2d_28">
      <g>
       <use style="stroke:#000000;stroke-width:0.6;" x="309.796217" xlink:href="#m942d05a073" y="256.492188"/>
      </g>
     </g>
    </g>
    <g id="xtick_29">
     <g id="line2d_29">
      <g>
       <use style="stroke:#000000;stroke-width:0.6;" x="341.235703" xlink:href="#m942d05a073" y="256.492188"/>
      </g>
     </g>
    </g>
    <g id="xtick_30">
     <g id="line2d_30">
      <g>
       <use style="stroke:#000000;stroke-width:0.6;" x="357.2" xlink:href="#m942d05a073" y="256.492188"/>
      </g>
     </g>
    </g>
    <g id="text_5">
     <!-- Electron energy [eV] -->
     <g transform="translate(144.992813 282.72125)scale(0.12 -0.12)">
      <defs>
       <path d="M 472 0 
L 472 4653 
L 3381 4653 
L 3381 4103 
L 1091 4103 
L 1091 2828 
L 3225 2828 
L 3225 2278 
L 1091 2278 
L 1091 550 
L 3381 550 
L 3381 0 
L 472 0 
z
" id="Tahoma-45" transform="scale(0.015625)"/>
       <path d="M 1025 0 
L 438 0 
L 438 4863 
L 1025 4863 
L 1025 0 
z
" id="Tahoma-6c" transform="scale(0.015625)"/>
       <path d="M 1941 -81 
Q 1106 -81 645 389 
Q 184 859 184 1725 
Q 184 2578 631 3083 
Q 1078 3588 1800 3588 
Q 2125 3588 2375 3494 
Q 2625 3400 2813 3200 
Q 3000 3000 3100 2711 
Q 3200 2422 3200 2003 
L 3200 1684 
L 781 1684 
Q 781 1075 1087 753 
Q 1394 431 1934 431 
Q 2128 431 2314 475 
Q 2500 519 2650 588 
Q 2809 659 2918 726 
Q 3028 794 3100 853 
L 3134 853 
L 3134 213 
Q 3031 172 2878 111 
Q 2725 50 2603 16 
Q 2431 -31 2292 -56 
Q 2153 -81 1941 -81 
z
M 2628 2134 
Q 2622 2372 2572 2544 
Q 2522 2716 2428 2834 
Q 2325 2966 2164 3034 
Q 2003 3103 1766 3103 
Q 1531 3103 1367 3033 
Q 1203 2963 1069 2828 
Q 938 2691 869 2523 
Q 800 2356 781 2134 
L 2628 2134 
z
" id="Tahoma-65" transform="scale(0.015625)"/>
       <path d="M 1813 -78 
Q 1453 -78 1153 33 
Q 853 144 638 369 
Q 422 594 303 936 
Q 184 1278 184 1741 
Q 184 2200 307 2534 
Q 431 2869 638 3097 
Q 844 3325 1151 3448 
Q 1459 3572 1813 3572 
Q 2100 3572 2367 3490 
Q 2634 3409 2844 3303 
L 2844 2644 
L 2809 2644 
Q 2747 2697 2648 2765 
Q 2550 2834 2409 2906 
Q 2288 2969 2122 3016 
Q 1956 3063 1803 3063 
Q 1347 3063 1070 2717 
Q 794 2372 794 1741 
Q 794 1122 1061 776 
Q 1328 431 1803 431 
Q 2091 431 2350 550 
Q 2609 669 2809 856 
L 2844 856 
L 2844 197 
Q 2756 156 2625 98 
Q 2494 41 2388 13 
Q 2238 -31 2119 -54 
Q 2000 -78 1813 -78 
z
" id="Tahoma-63" transform="scale(0.015625)"/>
       <path d="M 1481 -69 
Q 1000 -69 731 204 
Q 463 478 463 1069 
L 463 3003 
L 66 3003 
L 66 3491 
L 463 3491 
L 463 4494 
L 1050 4494 
L 1050 3491 
L 2131 3491 
L 2131 3003 
L 1050 3003 
L 1050 1344 
Q 1050 1078 1059 934 
Q 1069 791 1131 666 
Q 1184 556 1303 501 
Q 1422 447 1625 447 
Q 1769 447 1903 489 
Q 2038 531 2097 559 
L 2131 559 
L 2131 31 
Q 1966 -16 1795 -42 
Q 1625 -69 1481 -69 
z
" id="Tahoma-74" transform="scale(0.015625)"/>
       <path d="M 2275 2859 
L 2244 2859 
Q 2178 2878 2104 2883 
Q 2031 2888 1928 2888 
Q 1691 2888 1456 2784 
Q 1222 2681 1013 2478 
L 1013 0 
L 425 0 
L 425 3491 
L 1013 3491 
L 1013 2972 
Q 1334 3256 1573 3373 
Q 1813 3491 2038 3491 
Q 2128 3491 2173 3486 
Q 2219 3481 2275 3472 
L 2275 2859 
z
" id="Tahoma-72" transform="scale(0.015625)"/>
       <path d="M 3297 1744 
Q 3297 863 2872 383 
Q 2447 -97 1741 -97 
Q 1013 -97 595 398 
Q 178 894 178 1744 
Q 178 2619 608 3103 
Q 1038 3588 1741 3588 
Q 2447 3588 2872 3105 
Q 3297 2622 3297 1744 
z
M 2691 1744 
Q 2691 2422 2444 2751 
Q 2197 3081 1741 3081 
Q 1281 3081 1032 2751 
Q 784 2422 784 1744 
Q 784 1088 1032 748 
Q 1281 409 1741 409 
Q 2194 409 2442 742 
Q 2691 1075 2691 1744 
z
" id="Tahoma-6f" transform="scale(0.015625)"/>
       <path d="M 3169 0 
L 2581 0 
L 2581 1988 
Q 2581 2228 2557 2436 
Q 2534 2644 2469 2769 
Q 2397 2900 2269 2964 
Q 2141 3028 1919 3028 
Q 1700 3028 1467 2911 
Q 1234 2794 1013 2606 
L 1013 0 
L 425 0 
L 425 3491 
L 1013 3491 
L 1013 3103 
Q 1275 3338 1531 3463 
Q 1788 3588 2072 3588 
Q 2588 3588 2878 3248 
Q 3169 2909 3169 2266 
L 3169 0 
z
" id="Tahoma-6e" transform="scale(0.015625)"/>
       <path id="Tahoma-20" transform="scale(0.015625)"/>
       <path d="M 2525 947 
L 2525 2863 
Q 2306 2969 2120 3014 
Q 1934 3059 1750 3059 
Q 1303 3059 1047 2731 
Q 791 2403 791 1791 
Q 791 1209 986 906 
Q 1181 603 1619 603 
Q 1847 603 2089 693 
Q 2331 784 2525 947 
z
M 550 -559 
Q 609 -584 725 -626 
Q 841 -669 988 -706 
Q 1150 -747 1287 -772 
Q 1425 -797 1588 -797 
Q 1859 -797 2048 -725 
Q 2238 -653 2344 -525 
Q 2444 -397 2484 -228 
Q 2525 -59 2525 156 
L 2525 463 
Q 2288 256 2059 157 
Q 1831 59 1488 59 
Q 891 59 537 503 
Q 184 947 184 1778 
Q 184 2213 306 2548 
Q 428 2884 634 3119 
Q 831 3344 1100 3466 
Q 1369 3588 1656 3588 
Q 1928 3588 2126 3523 
Q 2325 3459 2525 3341 
L 2559 3491 
L 3113 3491 
L 3113 397 
Q 3113 -491 2725 -906 
Q 2338 -1322 1541 -1322 
Q 1284 -1322 1017 -1281 
Q 750 -1241 519 -1172 
L 519 -559 
L 550 -559 
z
" id="Tahoma-67" transform="scale(0.015625)"/>
       <path d="M 3169 3491 
L 1291 -1288 
L 663 -1288 
L 1288 169 
L 19 3491 
L 653 3491 
L 1606 906 
L 2556 3491 
L 3169 3491 
z
" id="Tahoma-79" transform="scale(0.015625)"/>
       <path d="M 2144 -1225 
L 519 -1225 
L 519 4863 
L 2144 4863 
L 2144 4416 
L 1066 4416 
L 1066 -778 
L 2144 -778 
L 2144 -1225 
z
" id="Tahoma-5b" transform="scale(0.015625)"/>
       <path d="M 3844 4653 
L 2244 0 
L 1575 0 
L -25 4653 
L 638 4653 
L 1925 791 
L 3213 4653 
L 3844 4653 
z
" id="Tahoma-56" transform="scale(0.015625)"/>
       <path d="M 1931 -1225 
L 306 -1225 
L 306 -778 
L 1384 -778 
L 1384 4416 
L 306 4416 
L 306 4863 
L 1931 4863 
L 1931 -1225 
z
" id="Tahoma-5d" transform="scale(0.015625)"/>
      </defs>
      <use xlink:href="#Tahoma-45"/>
      <use x="56.103516" xlink:href="#Tahoma-6c"/>
      <use x="78.955078" xlink:href="#Tahoma-65"/>
      <use x="131.591797" xlink:href="#Tahoma-63"/>
      <use x="177.734375" xlink:href="#Tahoma-74"/>
      <use x="211.181641" xlink:href="#Tahoma-72"/>
      <use x="246.716797" xlink:href="#Tahoma-6f"/>
      <use x="301.013672" xlink:href="#Tahoma-6e"/>
      <use x="356.775391" xlink:href="#Tahoma-20"/>
      <use x="388.025391" xlink:href="#Tahoma-65"/>
      <use x="440.662109" xlink:href="#Tahoma-6e"/>
      <use x="496.423828" xlink:href="#Tahoma-65"/>
      <use x="549.060547" xlink:href="#Tahoma-72"/>
      <use x="584.595703" xlink:href="#Tahoma-67"/>
      <use x="639.869141" xlink:href="#Tahoma-79"/>
      <use x="689.673828" xlink:href="#Tahoma-20"/>
      <use x="720.923828" xlink:href="#Tahoma-5b"/>
      <use x="759.205078" xlink:href="#Tahoma-65"/>
      <use x="811.841797" xlink:href="#Tahoma-56"/>
      <use x="871.509766" xlink:href="#Tahoma-5d"/>
     </g>
    </g>
   </g>
   <g id="matplotlib.axis_2">
    <g id="ytick_1">
     <g id="line2d_31">
      <defs>
       <path d="M 0 0 
L 3.5 0 
" id="ma720fe15e7" style="stroke:#000000;stroke-width:0.8;"/>
      </defs>
      <g>
       <use style="stroke:#000000;stroke-width:0.8;" x="41.966875" xlink:href="#ma720fe15e7" y="256.492188"/>
      </g>
     </g>
     <g id="text_6">
      <!-- 0.0 -->
      <g transform="translate(24.52 260.291406)scale(0.1 -0.1)">
       <defs>
        <path d="M 1341 0 
L 594 0 
L 594 891 
L 1341 891 
L 1341 0 
z
" id="Tahoma-2e" transform="scale(0.015625)"/>
       </defs>
       <use xlink:href="#Tahoma-30"/>
       <use x="54.589844" xlink:href="#Tahoma-2e"/>
       <use x="84.863281" xlink:href="#Tahoma-30"/>
      </g>
     </g>
    </g>
    <g id="ytick_2">
     <g id="line2d_32">
      <g>
       <use style="stroke:#000000;stroke-width:0.8;" x="41.966875" xlink:href="#ma720fe15e7" y="207.393594"/>
      </g>
     </g>
     <g id="text_7">
      <!-- 0.2 -->
      <g transform="translate(24.52 211.192812)scale(0.1 -0.1)">
       <use xlink:href="#Tahoma-30"/>
       <use x="54.589844" xlink:href="#Tahoma-2e"/>
       <use x="84.863281" xlink:href="#Tahoma-32"/>
      </g>
     </g>
    </g>
    <g id="ytick_3">
     <g id="line2d_33">
      <g>
       <use style="stroke:#000000;stroke-width:0.8;" x="41.966875" xlink:href="#ma720fe15e7" y="158.295"/>
      </g>
     </g>
     <g id="text_8">
      <!-- 0.4 -->
      <g transform="translate(24.52 162.094219)scale(0.1 -0.1)">
       <defs>
        <path d="M 3334 1600 
L 2781 1600 
L 2781 0 
L 2181 0 
L 2181 1600 
L 125 1600 
L 125 2256 
L 2206 4653 
L 2781 4653 
L 2781 2100 
L 3334 2100 
L 3334 1600 
z
M 2181 2100 
L 2181 3919 
L 613 2100 
L 2181 2100 
z
" id="Tahoma-34" transform="scale(0.015625)"/>
       </defs>
       <use xlink:href="#Tahoma-30"/>
       <use x="54.589844" xlink:href="#Tahoma-2e"/>
       <use x="84.863281" xlink:href="#Tahoma-34"/>
      </g>
     </g>
    </g>
    <g id="ytick_4">
     <g id="line2d_34">
      <g>
       <use style="stroke:#000000;stroke-width:0.8;" x="41.966875" xlink:href="#ma720fe15e7" y="109.196406"/>
      </g>
     </g>
     <g id="text_9">
      <!-- 0.6 -->
      <g transform="translate(24.52 112.995625)scale(0.1 -0.1)">
       <defs>
        <path d="M 3284 1509 
Q 3284 1150 3165 847 
Q 3047 544 2847 341 
Q 2638 125 2378 14 
Q 2119 -97 1806 -97 
Q 1491 -97 1233 9 
Q 975 116 778 325 
Q 538 578 402 1001 
Q 266 1425 266 2044 
Q 266 2650 391 3139 
Q 516 3628 775 3991 
Q 1028 4344 1428 4542 
Q 1828 4741 2353 4741 
Q 2509 4741 2643 4725 
Q 2778 4709 2881 4675 
L 2881 4078 
L 2853 4078 
Q 2769 4125 2609 4164 
Q 2450 4203 2269 4203 
Q 1688 4203 1330 3811 
Q 972 3419 906 2647 
Q 1128 2803 1362 2887 
Q 1597 2972 1875 2972 
Q 2147 2972 2351 2917 
Q 2556 2863 2778 2697 
Q 3034 2503 3159 2206 
Q 3284 1909 3284 1509 
z
M 2650 1484 
Q 2650 1772 2575 1965 
Q 2500 2159 2331 2297 
Q 2209 2397 2054 2428 
Q 1900 2459 1738 2459 
Q 1519 2459 1312 2393 
Q 1106 2328 906 2203 
Q 900 2134 897 2070 
Q 894 2006 894 1909 
Q 894 1425 989 1128 
Q 1084 831 1225 678 
Q 1359 531 1501 472 
Q 1644 413 1809 413 
Q 2184 413 2417 681 
Q 2650 950 2650 1484 
z
" id="Tahoma-36" transform="scale(0.015625)"/>
       </defs>
       <use xlink:href="#Tahoma-30"/>
       <use x="54.589844" xlink:href="#Tahoma-2e"/>
       <use x="84.863281" xlink:href="#Tahoma-36"/>
      </g>
     </g>
    </g>
    <g id="ytick_5">
     <g id="line2d_35">
      <g>
       <use style="stroke:#000000;stroke-width:0.8;" x="41.966875" xlink:href="#ma720fe15e7" y="60.097813"/>
      </g>
     </g>
     <g id="text_10">
      <!-- 0.8 -->
      <g transform="translate(24.52 63.897031)scale(0.1 -0.1)">
       <defs>
        <path d="M 2534 3569 
Q 2534 3881 2325 4090 
Q 2116 4300 1744 4300 
Q 1403 4300 1186 4112 
Q 969 3925 969 3606 
Q 969 3375 1080 3215 
Q 1191 3056 1413 2928 
Q 1509 2875 1707 2781 
Q 1906 2688 2069 2634 
Q 2341 2844 2437 3064 
Q 2534 3284 2534 3569 
z
M 2622 1238 
Q 2622 1525 2509 1694 
Q 2397 1863 2075 2038 
Q 1969 2097 1792 2165 
Q 1616 2234 1394 2328 
Q 1134 2156 996 1904 
Q 859 1653 859 1331 
Q 859 909 1114 634 
Q 1369 359 1753 359 
Q 2147 359 2384 595 
Q 2622 831 2622 1238 
z
M 1747 -106 
Q 1400 -106 1115 -3 
Q 831 100 631 294 
Q 434 481 332 739 
Q 231 997 231 1284 
Q 231 1663 432 1980 
Q 634 2297 1019 2484 
L 1019 2503 
Q 675 2703 509 2940 
Q 344 3178 344 3534 
Q 344 4059 741 4409 
Q 1138 4759 1747 4759 
Q 2381 4759 2764 4426 
Q 3147 4094 3147 3575 
Q 3147 3263 2964 2956 
Q 2781 2650 2438 2478 
L 2438 2459 
Q 2844 2269 3053 1997 
Q 3263 1725 3263 1297 
Q 3263 700 2830 297 
Q 2397 -106 1747 -106 
z
" id="Tahoma-38" transform="scale(0.015625)"/>
       </defs>
       <use xlink:href="#Tahoma-30"/>
       <use x="54.589844" xlink:href="#Tahoma-2e"/>
       <use x="84.863281" xlink:href="#Tahoma-38"/>
      </g>
     </g>
    </g>
    <g id="ytick_6">
     <g id="line2d_36">
      <g>
       <use style="stroke:#000000;stroke-width:0.8;" x="41.966875" xlink:href="#ma720fe15e7" y="10.999219"/>
      </g>
     </g>
     <g id="text_11">
      <!-- 1.0 -->
      <g transform="translate(24.52 14.798438)scale(0.1 -0.1)">
       <use xlink:href="#Tahoma-31"/>
       <use x="54.589844" xlink:href="#Tahoma-2e"/>
       <use x="84.863281" xlink:href="#Tahoma-30"/>
      </g>
     </g>
    </g>
    <g id="text_12">
     <!-- d $\eta$ / dE [eV$^{-1}$] -->
     <g transform="translate(18 175.145703)rotate(-90)scale(0.12 -0.12)">
      <defs>
       <path d="M 3113 0 
L 2525 0 
L 2525 356 
Q 2388 241 2288 166 
Q 2188 91 2053 28 
Q 1928 -31 1793 -64 
Q 1659 -97 1481 -97 
Q 1197 -97 955 22 
Q 713 141 544 369 
Q 372 600 278 939 
Q 184 1278 184 1719 
Q 184 2178 303 2514 
Q 422 2850 631 3100 
Q 822 3328 1092 3458 
Q 1363 3588 1659 3588 
Q 1922 3588 2115 3530 
Q 2309 3472 2525 3350 
L 2525 4863 
L 3113 4863 
L 3113 0 
z
M 2525 850 
L 2525 2863 
Q 2306 2969 2132 3009 
Q 1959 3050 1756 3050 
Q 1303 3050 1047 2711 
Q 791 2372 791 1731 
Q 791 1116 987 789 
Q 1184 463 1619 463 
Q 1850 463 2084 567 
Q 2319 672 2525 850 
z
" id="Tahoma-64" transform="scale(0.015625)"/>
       <path d="M 3703 2113 
L 3034 -1331 
L 2459 -1331 
L 3125 2094 
Q 3222 2591 3075 2838 
Q 2931 3084 2544 3084 
Q 2078 3084 1750 2788 
Q 1425 2491 1325 1978 
L 941 0 
L 363 0 
L 1044 3500 
L 1622 3500 
L 1516 2956 
Q 1781 3272 2094 3428 
Q 2403 3584 2769 3584 
Q 3372 3584 3609 3213 
Q 3844 2838 3703 2113 
z
" id="DejaVuSans-Oblique-3b7" transform="scale(0.015625)"/>
       <path d="M 2275 4863 
L 453 -1013 
L -75 -1013 
L 1738 4863 
L 2275 4863 
z
" id="Tahoma-2f" transform="scale(0.015625)"/>
       <path d="M 678 2272 
L 4684 2272 
L 4684 1741 
L 678 1741 
L 678 2272 
z
" id="DejaVuSans-2212" transform="scale(0.015625)"/>
       <path d="M 794 531 
L 1825 531 
L 1825 4091 
L 703 3866 
L 703 4441 
L 1819 4666 
L 2450 4666 
L 2450 531 
L 3481 531 
L 3481 0 
L 794 0 
L 794 531 
z
" id="DejaVuSans-31" transform="scale(0.015625)"/>
      </defs>
      <use transform="translate(0 0.684375)" xlink:href="#Tahoma-64"/>
      <use transform="translate(55.273438 0.684375)" xlink:href="#Tahoma-20"/>
      <use transform="translate(86.523438 0.684375)" xlink:href="#DejaVuSans-Oblique-3b7"/>
      <use transform="translate(149.902344 0.684375)" xlink:href="#Tahoma-20"/>
      <use transform="translate(181.152344 0.684375)" xlink:href="#Tahoma-2f"/>
      <use transform="translate(219.384766 0.684375)" xlink:href="#Tahoma-20"/>
      <use transform="translate(250.634766 0.684375)" xlink:href="#Tahoma-64"/>
      <use transform="translate(305.908203 0.684375)" xlink:href="#Tahoma-45"/>
      <use transform="translate(362.011719 0.684375)" xlink:href="#Tahoma-20"/>
      <use transform="translate(393.261719 0.684375)" xlink:href="#Tahoma-5b"/>
      <use transform="translate(431.542969 0.684375)" xlink:href="#Tahoma-65"/>
      <use transform="translate(484.179688 0.684375)" xlink:href="#Tahoma-56"/>
      <use transform="translate(544.804688 38.965625)scale(0.7)" xlink:href="#DejaVuSans-2212"/>
      <use transform="translate(603.457031 38.965625)scale(0.7)" xlink:href="#DejaVuSans-31"/>
      <use transform="translate(650.727539 0.684375)" xlink:href="#Tahoma-5d"/>
     </g>
    </g>
   </g>
   <g id="line2d_37">
    <path clip-path="url(#pb3fa842df6)" d="M 39.947314 256.492188 
L 142.962178 256.492188 
L 147.261712 254.056263 
L 151.137616 250.845226 
L 157.903907 245.50136 
L 163.676144 240.641433 
L 171.003563 234.398228 
L 173.171434 232.684508 
L 175.226145 230.843298 
L 185.709913 220.24358 
L 188.664271 217.725692 
L 191.412337 215.703505 
L 193.981048 214.10533 
L 196.39239 212.860484 
L 198.664535 211.902221 
L 201.844345 210.881188 
L 204.786429 210.230189 
L 207.523872 209.840646 
L 210.90076 209.597192 
L 214.75134 209.569944 
L 219.578546 209.80119 
L 226.1393 210.381965 
L 240.292335 211.711148 
L 246.325144 212.017743 
L 251.555226 212.06032 
L 256.426724 211.870734 
L 260.761306 211.486275 
L 264.871624 210.90964 
L 268.965147 210.106803 
L 272.841011 209.114157 
L 276.522396 207.940843 
L 280.028844 206.59464 
L 283.505173 205.01955 
L 286.817138 203.276354 
L 290.089125 201.301333 
L 293.309972 199.090503 
L 296.379537 196.716373 
L 299.398315 194.106059 
L 302.440093 191.176814 
L 305.41064 188.00269 
L 308.30926 184.582502 
L 311.199501 180.82903 
L 314.069056 176.736268 
L 316.908306 172.298981 
L 319.76087 167.421651 
L 322.56328 162.189047 
L 325.400813 156.412288 
L 328.253415 150.088958 
L 331.104703 143.220821 
L 333.834726 136.066011 
L 336.45442 128.569704 
L 338.910632 120.860559 
L 341.193017 112.960682 
L 343.294294 104.880255 
L 345.182362 96.738312 
L 346.881795 88.416646 
L 348.363315 80.043555 
L 349.648247 71.485569 
L 350.730459 62.754449 
L 351.625247 53.680654 
L 352.322262 44.296502 
L 352.765488 36.229902 
L 352.853537 32.604573 
L 352.919445 33.480354 
L 353.007152 35.61218 
L 353.029048 34.275647 
L 353.072804 10.999219 
L 353.20378 16.353095 
L 354.5744 77.284586 
L 355.837807 143.393492 
L 356.883698 209.649721 
L 357.2 242.302683 
L 357.2 242.302683 
" style="fill:none;stroke:#1f77b4;stroke-linecap:square;stroke-width:1.5;"/>
   </g>
   <g id="line2d_38">
    <path clip-path="url(#pb3fa842df6)" d="M 39.947314 256.492188 
L 126.233069 256.492187 
L 132.63201 253.229739 
L 138.134915 252.471111 
L 142.962178 245.685596 
L 147.261712 243.007411 
L 151.137616 241.749492 
L 154.665933 241.024851 
L 157.903907 240.562967 
L 160.895711 240.312649 
L 166.273113 240.232108 
L 171.003563 240.603435 
L 177.178926 241.440339 
L 182.515759 242.484989 
L 200.812682 246.610339 
L 207.523872 247.838808 
L 214.75134 248.931623 
L 222.092562 249.817786 
L 230.305953 250.58089 
L 239.517762 251.200598 
L 249.485088 251.641444 
L 260.302588 251.892008 
L 271.301254 251.924988 
L 282.071696 251.738085 
L 292.197004 251.342571 
L 301.479082 250.759223 
L 309.846498 250.014349 
L 317.452389 249.11834 
L 324.417187 248.077299 
L 330.913231 246.882963 
L 336.620808 245.61614 
L 341.281617 244.362385 
L 344.941166 243.156645 
L 347.692242 242.025846 
L 349.695923 240.971675 
L 351.100015 239.996239 
L 352.076344 239.063228 
L 352.743445 238.161117 
L 352.853537 237.789197 
L 352.919445 237.863242 
L 353.007152 238.042485 
L 353.029048 237.931139 
L 353.072804 235.987577 
L 353.20378 236.436639 
L 354.616472 241.709543 
L 355.898908 247.357843 
L 356.903541 252.720076 
L 357.2 255.310397 
L 357.2 255.310397 
" style="fill:none;stroke:#ff7f0e;stroke-linecap:square;stroke-width:1.5;"/>
   </g>
   <g id="line2d_39">
    <path clip-path="url(#pb3fa842df6)" d="M 41.966875 238.22048 
L 78.047748 217.184297 
L 96.554092 202.802823 
L 109.092955 193.715058 
L 118.588437 188.661723 
L 126.233069 186.636716 
L 132.63201 186.902787 
L 138.134915 188.342211 
L 142.962178 190.971356 
L 147.261712 193.712606 
L 151.137616 196.559875 
L 154.665933 199.424295 
L 157.903907 202.288829 
L 163.676144 207.846722 
L 173.171434 217.608293 
L 179.039415 223.595043 
L 182.515759 226.919101 
L 185.709913 229.761517 
L 190.062275 233.265439 
L 193.981048 236.042685 
L 197.54485 238.265344 
L 200.812682 240.065514 
L 204.786429 241.974794 
L 208.395632 243.470877 
L 212.48646 244.927217 
L 216.892991 246.251277 
L 221.478946 247.402157 
L 226.684891 248.476462 
L 232.702607 249.469258 
L 239.124685 250.294961 
L 246.325144 250.996029 
L 254.60318 251.573367 
L 263.830872 251.990981 
L 274.160893 252.230146 
L 285.011649 252.256882 
L 295.915412 252.06337 
L 306.424588 251.657448 
L 316.245325 251.058333 
L 325.268121 250.288183 
L 333.65611 249.351611 
L 340.326113 248.396623 
L 345.12889 247.498737 
L 348.387951 246.679272 
L 350.52105 245.928416 
L 351.851442 245.242351 
L 352.721389 244.562052 
L 352.897488 244.312001 
L 352.94139 244.374617 
L 353.007152 244.462578 
L 353.029048 244.390919 
L 353.072804 243.125849 
L 353.20378 243.424654 
L 354.721457 247.188603 
L 356.041109 251.048815 
L 356.963012 254.392339 
L 357.121162 254.738283 
L 357.160601 254.841518 
L 357.2 255.732905 
L 357.2 255.732905 
" style="fill:none;stroke:#2ca02c;stroke-linecap:square;stroke-width:1.5;"/>
   </g>
   <g id="patch_3">
    <path d="M 41.966875 256.492188 
L 41.966875 10.999219 
" style="fill:none;stroke:#000000;stroke-linecap:square;stroke-linejoin:miter;"/>
   </g>
   <g id="patch_4">
    <path d="M 357.2 256.492188 
L 357.2 10.999219 
" style="fill:none;stroke:#000000;stroke-linecap:square;stroke-linejoin:miter;"/>
   </g>
   <g id="patch_5">
    <path d="M 41.966875 256.492188 
L 357.2 256.492188 
" style="fill:none;stroke:#000000;stroke-linecap:square;stroke-linejoin:miter;"/>
   </g>
   <g id="patch_6">
    <path d="M 41.966875 10.999219 
L 357.2 10.999219 
" style="fill:none;stroke:#000000;stroke-linecap:square;stroke-linejoin:miter;"/>
   </g>
   <g id="legend_1">
    <g id="line2d_40">
     <path d="M 50.966875 24.097656 
L 70.966875 24.097656 
" style="fill:none;stroke:#1f77b4;stroke-linecap:square;stroke-width:1.5;"/>
    </g>
    <g id="line2d_41"/>
    <g id="text_13">
     <!-- Ionisation -->
     <g transform="translate(78.966875 27.597656)scale(0.1 -0.1)">
      <defs>
       <path d="M 2097 0 
L 291 0 
L 291 475 
L 884 475 
L 884 4178 
L 291 4178 
L 291 4653 
L 2097 4653 
L 2097 4178 
L 1503 4178 
L 1503 475 
L 2097 475 
L 2097 0 
z
" id="Tahoma-49" transform="scale(0.015625)"/>
       <path d="M 1025 0 
L 438 0 
L 438 3491 
L 1025 3491 
L 1025 0 
z
M 1066 4075 
L 397 4075 
L 397 4684 
L 1066 4684 
L 1066 4075 
z
" id="Tahoma-69" transform="scale(0.015625)"/>
       <path d="M 1369 -84 
Q 1019 -84 714 9 
Q 409 103 209 209 
L 209 869 
L 241 869 
Q 316 809 417 737 
Q 519 666 688 588 
Q 838 519 1017 466 
Q 1197 413 1391 413 
Q 1531 413 1690 445 
Q 1850 478 1928 528 
Q 2038 600 2086 681 
Q 2134 763 2134 925 
Q 2134 1134 2020 1240 
Q 1906 1347 1616 1419 
Q 1503 1447 1322 1484 
Q 1141 1522 988 1566 
Q 588 1681 406 1923 
Q 225 2166 225 2509 
Q 225 2981 581 3278 
Q 938 3575 1528 3575 
Q 1819 3575 2112 3503 
Q 2406 3431 2606 3322 
L 2606 2694 
L 2575 2694 
Q 2350 2872 2073 2975 
Q 1797 3078 1516 3078 
Q 1225 3078 1025 2956 
Q 825 2834 825 2588 
Q 825 2369 944 2261 
Q 1063 2153 1325 2084 
Q 1456 2050 1617 2017 
Q 1778 1984 1956 1941 
Q 2344 1844 2539 1619 
Q 2734 1394 2734 1006 
Q 2734 781 2645 579 
Q 2556 378 2384 234 
Q 2197 78 1961 -3 
Q 1725 -84 1369 -84 
z
" id="Tahoma-73" transform="scale(0.015625)"/>
       <path d="M 2375 859 
L 2375 1828 
Q 2166 1809 1845 1776 
Q 1525 1744 1328 1684 
Q 1094 1613 941 1464 
Q 788 1316 788 1050 
Q 788 750 956 597 
Q 1125 444 1450 444 
Q 1728 444 1953 564 
Q 2178 684 2375 859 
z
M 2375 372 
Q 2303 319 2183 223 
Q 2063 128 1950 72 
Q 1794 -9 1648 -53 
Q 1503 -97 1241 -97 
Q 1025 -97 831 -15 
Q 638 66 491 213 
Q 350 356 265 567 
Q 181 778 181 1013 
Q 181 1375 334 1629 
Q 488 1884 819 2034 
Q 1113 2169 1513 2220 
Q 1913 2272 2375 2297 
L 2375 2409 
Q 2375 2616 2312 2742 
Q 2250 2869 2138 2938 
Q 2025 3009 1862 3032 
Q 1700 3056 1528 3056 
Q 1325 3056 1050 2995 
Q 775 2934 500 2819 
L 466 2819 
L 466 3416 
Q 628 3463 931 3519 
Q 1234 3575 1531 3575 
Q 1891 3575 2137 3519 
Q 2384 3463 2581 3316 
Q 2772 3172 2865 2944 
Q 2959 2716 2959 2388 
L 2959 0 
L 2375 0 
L 2375 372 
z
" id="Tahoma-61" transform="scale(0.015625)"/>
      </defs>
      <use xlink:href="#Tahoma-49"/>
      <use x="36.054688" xlink:href="#Tahoma-6f"/>
      <use x="90.351562" xlink:href="#Tahoma-6e"/>
      <use x="146.113281" xlink:href="#Tahoma-69"/>
      <use x="168.964844" xlink:href="#Tahoma-73"/>
      <use x="213.59375" xlink:href="#Tahoma-61"/>
      <use x="266.083984" xlink:href="#Tahoma-74"/>
      <use x="299.53125" xlink:href="#Tahoma-69"/>
      <use x="322.382812" xlink:href="#Tahoma-6f"/>
      <use x="376.679688" xlink:href="#Tahoma-6e"/>
     </g>
    </g>
    <g id="line2d_42">
     <path d="M 50.966875 38.708594 
L 70.966875 38.708594 
" style="fill:none;stroke:#ff7f0e;stroke-linecap:square;stroke-width:1.5;"/>
    </g>
    <g id="line2d_43"/>
    <g id="text_14">
     <!-- Excitation -->
     <g transform="translate(78.966875 42.208594)scale(0.1 -0.1)">
      <defs>
       <path d="M 3138 0 
L 2416 0 
L 1569 1319 
L 697 0 
L 31 0 
L 1244 1731 
L 44 3491 
L 766 3491 
L 1606 2184 
L 2469 3491 
L 3138 3491 
L 1931 1772 
L 3138 0 
z
" id="Tahoma-78" transform="scale(0.015625)"/>
      </defs>
      <use xlink:href="#Tahoma-45"/>
      <use x="56.103516" xlink:href="#Tahoma-78"/>
      <use x="104.740234" xlink:href="#Tahoma-63"/>
      <use x="150.882812" xlink:href="#Tahoma-69"/>
      <use x="173.984375" xlink:href="#Tahoma-74"/>
      <use x="207.431641" xlink:href="#Tahoma-61"/>
      <use x="259.921875" xlink:href="#Tahoma-74"/>
      <use x="293.369141" xlink:href="#Tahoma-69"/>
      <use x="316.220703" xlink:href="#Tahoma-6f"/>
      <use x="370.517578" xlink:href="#Tahoma-6e"/>
     </g>
    </g>
    <g id="line2d_44">
     <path d="M 50.966875 53.319531 
L 70.966875 53.319531 
" style="fill:none;stroke:#2ca02c;stroke-linecap:square;stroke-width:1.5;"/>
    </g>
    <g id="line2d_45"/>
    <g id="text_15">
     <!-- Heating -->
     <g transform="translate(78.966875 56.819531)scale(0.1 -0.1)">
      <defs>
       <path d="M 3850 0 
L 3231 0 
L 3231 2278 
L 1091 2278 
L 1091 0 
L 472 0 
L 472 4653 
L 1091 4653 
L 1091 2828 
L 3231 2828 
L 3231 4653 
L 3850 4653 
L 3850 0 
z
" id="Tahoma-48" transform="scale(0.015625)"/>
      </defs>
      <use xlink:href="#Tahoma-48"/>
      <use x="67.529297" xlink:href="#Tahoma-65"/>
      <use x="120.166016" xlink:href="#Tahoma-61"/>
      <use x="172.65625" xlink:href="#Tahoma-74"/>
      <use x="206.103516" xlink:href="#Tahoma-69"/>
      <use x="228.955078" xlink:href="#Tahoma-6e"/>
      <use x="284.716797" xlink:href="#Tahoma-67"/>
     </g>
    </g>
   </g>
  </g>
 </g>
 <defs>
  <clipPath id="pb3fa842df6">
   <rect height="245.492969" width="315.233125" x="41.966875" y="10.999219"/>
  </clipPath>
 </defs>
</svg>